<svg pointer-events="none" width="35" height="30" viewBox="0 0 35 30" fill="none" xmlns="http://www.w3.org/2000/svg">
<path d="M26.4687 11.4309L26.0312 22.7813C25.994 23.7533 25.5162 24.6747 24.6994 25.3498C23.8826 26.0249 22.791 26.4006 21.6562 26.3972H13.3437C12.2098 26.4007 11.1188 26.0255 10.3021 25.3512C9.48537 24.6769 9.00713 23.7564 8.96875 22.785L8.53125 11.4309C8.52168 11.1823 8.62773 10.9406 8.82608 10.759C9.02443 10.5773 9.29883 10.4707 9.58891 10.4625C9.87899 10.4543 10.161 10.5452 10.3729 10.7152C10.5848 10.8852 10.7092 11.1204 10.7187 11.3691L11.1562 22.7222C11.178 23.2069 11.4181 23.6654 11.826 24.0016C12.2339 24.3378 12.7779 24.5254 13.3437 24.525H21.6562C22.2228 24.5253 22.7675 24.3372 23.1755 24.0002C23.5835 23.6633 23.8231 23.2038 23.8437 22.7184L24.2812 11.3691C24.2908 11.1204 24.4152 10.8852 24.6271 10.7152C24.839 10.5452 25.121 10.4543 25.4111 10.4625C25.7012 10.4707 25.9756 10.5773 26.1739 10.759C26.3723 10.9406 26.4783 11.1823 26.4687 11.4309V11.4309ZM27.9158 7.65375C27.9158 7.90239 27.8005 8.14085 27.5954 8.31666C27.3903 8.49248 27.1121 8.59125 26.822 8.59125H8.17906C7.88898 8.59125 7.61078 8.49248 7.40566 8.31666C7.20055 8.14085 7.08531 7.90239 7.08531 7.65375C7.08531 7.40511 7.20055 7.16665 7.40566 6.99084C7.61078 6.81502 7.88898 6.71625 8.17906 6.71625H11.5697C11.9162 6.71705 12.2507 6.6073 12.5081 6.40837C12.7655 6.20944 12.9273 5.93555 12.962 5.64C13.0427 4.9467 13.4217 4.304 14.025 3.8371C14.6284 3.3702 15.4129 3.11256 16.2258 3.11437H18.7742C19.5871 3.11256 20.3716 3.3702 20.975 3.8371C21.5783 4.304 21.9573 4.9467 22.038 5.64C22.0727 5.93555 22.2345 6.20944 22.4919 6.40837C22.7493 6.6073 23.0838 6.71705 23.4303 6.71625H26.8209C27.111 6.71625 27.3892 6.81502 27.5943 6.99084C27.7995 7.16665 27.9147 7.40511 27.9147 7.65375H27.9158ZM14.8608 6.71625H20.1414C19.9977 6.43476 19.9037 6.13648 19.8625 5.83125C19.8354 5.60016 19.7092 5.38592 19.5083 5.23004C19.3075 5.07416 19.0463 4.98773 18.7753 4.9875H16.2269C15.9559 4.98773 15.6947 5.07416 15.4938 5.23004C15.293 5.38592 15.1668 5.60016 15.1397 5.83125C15.0982 6.13653 15.0038 6.43481 14.8597 6.71625H14.8608ZM15.9622 20.9203V12.9375C15.9622 12.6889 15.847 12.4504 15.6418 12.2746C15.4367 12.0988 15.1585 12 14.8684 12C14.5784 12 14.3002 12.0988 14.095 12.2746C13.8899 12.4504 13.7747 12.6889 13.7747 12.9375V20.9241C13.7747 21.1727 13.8899 21.4112 14.095 21.587C14.3002 21.7628 14.5784 21.8616 14.8684 21.8616C15.1585 21.8616 15.4367 21.7628 15.6418 21.587C15.847 21.4112 15.9622 21.1727 15.9622 20.9241V20.9203ZM21.2275 20.9203V12.9375C21.2275 12.6889 21.1123 12.4504 20.9071 12.2746C20.702 12.0988 20.4238 12 20.1337 12C19.8437 12 19.5655 12.0988 19.3604 12.2746C19.1552 12.4504 19.04 12.6889 19.04 12.9375V20.9241C19.04 21.1727 19.1552 21.4112 19.3604 21.587C19.5655 21.7628 19.8437 21.8616 20.1337 21.8616C20.4238 21.8616 20.702 21.7628 20.9071 21.587C21.1123 21.4112 21.2275 21.1727 21.2275 20.9241V20.9203Z" fill="white"/>
</svg>
