<svg width="34" height="34" viewBox="0 0 20 20" fill="none" xmlns="http://www.w3.org/2000/svg">
<path fill-rule="evenodd" clip-rule="evenodd" d="M6.46539 9.99994L5.78867 8.78541C4.65352 6.74838 4.6307 4.67494 6.58188 3.63744L7.54422 3.12705C9.67297 2.04713 11.2614 3.23814 12.3969 5.27588L13.749 7.7026L12.6074 8.28174C12.5332 8.31939 12.0743 7.32502 11.4083 6.1297L11.2552 5.85502C10.456 4.42064 9.79977 3.56064 8.22961 4.35713L7.36086 4.78744C5.40023 5.78041 6.5818 7.57869 6.93117 8.20588L7.0843 8.48049L7.93086 9.99994H14.3745C14.7195 9.99994 15 10.2801 15 10.6257V17.2648C15 17.6109 14.7199 17.8906 14.3745 17.8906H5.62555C5.28055 17.8906 5 17.6104 5 17.2648V10.6257C5 10.2796 5.28008 9.99994 5.62555 9.99994H6.46539V9.99994ZM13.75 11.5871C13.75 11.4009 13.6291 11.2499 13.4797 11.2499H6.52031C6.37102 11.2499 6.25 11.4012 6.25 11.5871V16.3034C6.25 16.4896 6.37086 16.6406 6.52031 16.6406H13.4797C13.629 16.6406 13.75 16.4893 13.75 16.3034V11.5871Z" fill="white"/>
</svg>
