<svg width="34" height="34" viewBox="0 0 34 34" fill="none" xmlns="http://www.w3.org/2000/svg">
<path d="M7.53512 20.5466L6.35163 24.9648L2.02599 25.0563C0.733258 22.6585 0 19.9152 0 17C0 14.181 0.685578 11.5226 1.90081 9.18185H1.90174L5.75277 9.88788L7.43976 13.7158C7.08668 14.7452 6.89423 15.8502 6.89423 17C6.89436 18.2479 7.12041 19.4435 7.53512 20.5466Z" fill="#FBBB00"/>
<path d="M33.703 13.8242C33.8982 14.8526 34 15.9146 34 17C34 18.2171 33.8721 19.4043 33.6283 20.5495C32.8007 24.4464 30.6384 27.8492 27.6428 30.2572L27.6419 30.2563L22.7913 30.0088L22.1048 25.7233C24.0925 24.5576 25.6459 22.7333 26.4641 20.5495H17.3738V13.8242H26.5967H33.703Z" fill="#518EF8"/>
<path d="M27.6417 30.2563L27.6426 30.2572C24.7293 32.5989 21.0285 34 16.9999 34C10.5259 34 4.89722 30.3815 2.02588 25.0563L7.53501 20.5467C8.97064 24.3782 12.6667 27.1057 16.9999 27.1057C18.8624 27.1057 20.6073 26.6022 22.1045 25.7233L27.6417 30.2563Z" fill="#28B446"/>
<path d="M27.8511 3.91372L22.3438 8.42244C20.7943 7.45384 18.9625 6.8943 17.0001 6.8943C12.5688 6.8943 8.80361 9.74691 7.43989 13.7158L1.90181 9.18186H1.90088C4.73018 3.72692 10.4298 0 17.0001 0C21.1249 0 24.9069 1.4693 27.8511 3.91372Z" fill="#F14336"/>
</svg>
