<svg width="48" height="48" viewBox="0 0 48 48" fill="none" xmlns="http://www.w3.org/2000/svg">
<path fill-rule="evenodd" clip-rule="evenodd" d="M23.4778 4C34.2178 4 42.9538 12.736 42.9538 23.476C42.9538 28.5431 41.0092 33.1646 37.8271 36.633L44.0886 42.8814C44.6746 43.4674 44.6766 44.4154 44.0906 45.0014C43.7986 45.2974 43.4126 45.4434 43.0286 45.4434C42.6466 45.4434 42.2626 45.2974 41.9686 45.0054L35.6315 38.686C32.2979 41.3557 28.0711 42.954 23.4778 42.954C12.7378 42.954 3.99979 34.216 3.99979 23.476C3.99979 12.736 12.7378 4 23.4778 4ZM23.4778 7C14.3918 7 6.99979 14.39 6.99979 23.476C6.99979 32.562 14.3918 39.954 23.4778 39.954C32.5618 39.954 39.9538 32.562 39.9538 23.476C39.9538 14.39 32.5618 7 23.4778 7Z" fill="#C4C4C4"/>
</svg>
