<svg width="24" height="24" viewBox="0 0 15 15" fill="none" xmlns="http://www.w3.org/2000/svg">
<path d="M4.35573 4.35573C4.39927 4.31208 4.451 4.27744 4.50795 4.25381C4.5649 4.23018 4.62595 4.21802 4.68761 4.21802C4.74926 4.21802 4.81031 4.23018 4.86726 4.25381C4.92421 4.27744 4.97594 4.31208 5.01948 4.35573L7.50011 6.83729L9.98073 4.35573C10.0243 4.31215 10.0761 4.27758 10.133 4.25399C10.1899 4.2304 10.251 4.21826 10.3126 4.21826C10.3742 4.21826 10.4353 4.2304 10.4922 4.25399C10.5492 4.27758 10.6009 4.31215 10.6445 4.35573C10.6881 4.39931 10.7226 4.45105 10.7462 4.508C10.7698 4.56494 10.7819 4.62597 10.7819 4.68761C10.7819 4.74924 10.7698 4.81027 10.7462 4.86721C10.7226 4.92416 10.6881 4.9759 10.6445 5.01948L8.16292 7.50011L10.6445 9.98073C10.6881 10.0243 10.7226 10.0761 10.7462 10.133C10.7698 10.1899 10.7819 10.251 10.7819 10.3126C10.7819 10.3742 10.7698 10.4353 10.7462 10.4922C10.7226 10.5492 10.6881 10.6009 10.6445 10.6445C10.6009 10.6881 10.5492 10.7226 10.4922 10.7462C10.4353 10.7698 10.3742 10.7819 10.3126 10.7819C10.251 10.7819 10.1899 10.7698 10.133 10.7462C10.0761 10.7226 10.0243 10.6881 9.98073 10.6445L7.50011 8.16292L5.01948 10.6445C4.9759 10.6881 4.92416 10.7226 4.86721 10.7462C4.81027 10.7698 4.74924 10.7819 4.68761 10.7819C4.62597 10.7819 4.56494 10.7698 4.508 10.7462C4.45105 10.7226 4.39931 10.6881 4.35573 10.6445C4.31215 10.6009 4.27758 10.5492 4.25399 10.4922C4.2304 10.4353 4.21826 10.3742 4.21826 10.3126C4.21826 10.251 4.2304 10.1899 4.25399 10.133C4.27758 10.0761 4.31215 10.0243 4.35573 9.98073L6.83729 7.50011L4.35573 5.01948C4.31208 4.97594 4.27744 4.92421 4.25381 4.86726C4.23018 4.81031 4.21802 4.74926 4.21802 4.68761C4.21802 4.62595 4.23018 4.5649 4.25381 4.50795C4.27744 4.451 4.31208 4.39927 4.35573 4.35573Z" fill="#C4C4C4"/>
</svg>
